<svg width="96" height="19" viewBox="0 0 96 19" fill="none" xmlns="http://www.w3.org/2000/svg">
<g id="Group 10">
<path id="Icon color" d="M9.5 3H6.5C5.94772 3 5.5 3.44772 5.5 4V7H9.5C9.61374 6.99748 9.7216 7.05039 9.78923 7.14188C9.85685 7.23336 9.87578 7.35201 9.84 7.46L9.1 9.66C9.03181 9.86192 8.84312 9.99842 8.63 10H5.5V17.5C5.5 17.7761 5.27614 18 5 18H2.5C2.22386 18 2 17.7761 2 17.5V10H0.5C0.223858 10 0 9.77614 0 9.5V7.5C0 7.22386 0.223858 7 0.5 7H2V4C2 1.79086 3.79086 0 6 0H9.5C9.77614 0 10 0.223858 10 0.5V2.5C10 2.77614 9.77614 3 9.5 3Z" fill="#707070"/>
<path id="Icon color_2" fill-rule="evenodd" clip-rule="evenodd" d="M47 1H39C36.2386 1 34 3.23858 34 6V14C34 16.7614 36.2386 19 39 19H47C49.7614 19 52 16.7614 52 14V6C52 3.23858 49.7614 1 47 1ZM50.25 14C50.2445 15.7926 48.7926 17.2445 47 17.25H39C37.2074 17.2445 35.7555 15.7926 35.75 14V6C35.7555 4.20735 37.2074 2.75549 39 2.75H47C48.7926 2.75549 50.2445 4.20735 50.25 6V14ZM47.75 6.25C48.3023 6.25 48.75 5.80228 48.75 5.25C48.75 4.69772 48.3023 4.25 47.75 4.25C47.1977 4.25 46.75 4.69772 46.75 5.25C46.75 5.80228 47.1977 6.25 47.75 6.25ZM43 5.50001C40.5147 5.50001 38.5 7.51473 38.5 10C38.5 12.4853 40.5147 14.5 43 14.5C45.4853 14.5 47.5 12.4853 47.5 10C47.5027 8.80572 47.0294 7.65958 46.1849 6.81509C45.3404 5.9706 44.1943 5.49735 43 5.50001ZM40.25 10C40.25 11.5188 41.4812 12.75 43 12.75C44.5188 12.75 45.75 11.5188 45.75 10C45.75 8.48122 44.5188 7.25 43 7.25C41.4812 7.25 40.25 8.48122 40.25 10Z" fill="#707070"/>
<path id="Icon color_3" d="M95.9708 3.46378C95.4547 4.15213 94.8309 4.75258 94.1235 5.24195C94.1235 5.42177 94.1235 5.60158 94.1235 5.79139C94.1292 9.0568 92.8249 12.1879 90.5029 14.4828C88.181 16.7777 85.0357 18.0443 81.7721 17.9988C79.8854 18.0051 78.0228 17.5743 76.3303 16.7401C76.239 16.7003 76.1802 16.61 76.1805 16.5103V16.4005C76.1805 16.257 76.2968 16.1407 76.4401 16.1407C78.2947 16.0796 80.0832 15.4366 81.5524 14.3026C79.8738 14.2688 78.3634 13.2744 77.6683 11.7453C77.6332 11.6617 77.6441 11.5659 77.6971 11.4925C77.7502 11.419 77.8376 11.3785 77.9279 11.3856C78.4381 11.4369 78.9534 11.3894 79.4456 11.2458C77.5925 10.8611 76.2001 9.32265 76.0008 7.43969C75.9937 7.34936 76.0342 7.26187 76.1076 7.20882C76.181 7.15577 76.2768 7.14483 76.3603 7.17996C76.8576 7.39939 77.3944 7.51496 77.9379 7.51961C76.3141 6.45384 75.6127 4.42672 76.2305 2.58469C76.2942 2.4057 76.4474 2.27347 76.6337 2.2366C76.82 2.19972 77.012 2.26365 77.1391 2.40487C79.3303 4.73695 82.341 6.12662 85.5364 6.28088C85.4546 5.95427 85.4143 5.61862 85.4166 5.28191C85.4465 3.51636 86.5389 1.94357 88.1825 1.29986C89.826 0.656154 91.6953 1.06893 92.9153 2.34494C93.747 2.18651 94.551 1.90716 95.3018 1.51579C95.3568 1.48145 95.4265 1.48145 95.4815 1.51579C95.5158 1.57081 95.5158 1.64058 95.4815 1.6956C95.1178 2.52835 94.5035 3.2268 93.7241 3.69355C94.4066 3.6144 95.0771 3.45341 95.7211 3.21404C95.7754 3.17713 95.8466 3.17713 95.9009 3.21404C95.9463 3.23482 95.9802 3.27457 95.9937 3.32269C96.0072 3.37081 95.9988 3.42242 95.9708 3.46378Z" fill="#707070"/>
</g>
</svg>
