<svg width="240" height="20" viewBox="0 0 240 20" fill="none" xmlns="http://www.w3.org/2000/svg">
<g id="Social/ Wishlist">
<g id="Group 10">
<path id="Icon color" d="M153.5 3.84224H150.5C149.948 3.84224 149.5 4.26641 149.5 4.78965V7.63189H153.5C153.614 7.6295 153.722 7.67963 153.789 7.7663C153.857 7.85298 153.876 7.96538 153.84 8.0677L153.1 10.152C153.032 10.3433 152.843 10.4726 152.63 10.4741H149.5V17.5797C149.5 17.8413 149.276 18.0534 149 18.0534H146.5C146.224 18.0534 146 17.8413 146 17.5797V10.4741H144.5C144.224 10.4741 144 10.262 144 10.0004V8.10559C144 7.84397 144.224 7.63189 144.5 7.63189H146V4.78965C146 2.69668 147.791 1 150 1H153.5C153.776 1 154 1.21209 154 1.47371V3.36853C154 3.63015 153.776 3.84224 153.5 3.84224Z" fill="#707070"/>
<path id="Icon color_2" fill-rule="evenodd" clip-rule="evenodd" d="M191 1.94653H183C180.239 1.94653 178 4.06739 178 6.6836V14.2629C178 16.8791 180.239 19 183 19H191C193.761 19 196 16.8791 196 14.2629V6.6836C196 4.06739 193.761 1.94653 191 1.94653ZM194.25 14.2637C194.245 15.9621 192.793 17.3376 191 17.3428H183C181.207 17.3376 179.755 15.9621 179.75 14.2637V6.68439C179.755 4.98601 181.207 3.61049 183 3.60529H191C192.793 3.61049 194.245 4.98601 194.25 6.68439V14.2637ZM191.75 6.9212C192.302 6.9212 192.75 6.49703 192.75 5.97378C192.75 5.45054 192.302 5.02637 191.75 5.02637C191.198 5.02637 190.75 5.45054 190.75 5.97378C190.75 6.49703 191.198 6.9212 191.75 6.9212ZM187 6.21076C184.515 6.21076 182.5 8.11953 182.5 10.4741C182.5 12.8287 184.515 14.7374 187 14.7374C189.485 14.7374 191.5 12.8287 191.5 10.4741C191.503 9.34262 191.029 8.25676 190.185 7.45668C189.34 6.6566 188.194 6.20824 187 6.21076ZM184.25 10.474C184.25 11.913 185.481 13.0794 187 13.0794C188.519 13.0794 189.75 11.913 189.75 10.474C189.75 9.03513 188.519 7.86865 187 7.86865C185.481 7.86865 184.25 9.03513 184.25 10.474Z" fill="#707070"/>
<path id="Icon color_3" d="M239.971 4.28076C239.455 4.93291 238.831 5.50179 238.124 5.96542C238.124 6.13578 238.124 6.30614 238.124 6.48597C238.129 9.57967 236.825 12.5461 234.503 14.7203C232.181 16.8945 229.036 18.0946 225.772 18.0515C223.885 18.0574 222.023 17.6493 220.33 16.859C220.239 16.8212 220.18 16.7357 220.181 16.6413V16.5372C220.181 16.4013 220.297 16.2911 220.44 16.2911C222.295 16.2332 224.083 15.624 225.552 14.5496C223.874 14.5176 222.363 13.5755 221.668 12.1268C221.633 12.0476 221.644 11.9569 221.697 11.8873C221.75 11.8177 221.838 11.7793 221.928 11.786C222.438 11.8346 222.953 11.7896 223.446 11.6535C221.592 11.2891 220.2 9.83154 220.001 8.04759C219.994 7.96201 220.034 7.87912 220.108 7.82886C220.181 7.7786 220.277 7.76824 220.36 7.80152C220.858 8.00941 221.394 8.11891 221.938 8.12331C220.314 7.11359 219.613 5.19306 220.23 3.44789C220.294 3.27831 220.447 3.15304 220.634 3.1181C220.82 3.08317 221.012 3.14373 221.139 3.27753C223.33 5.48698 226.341 6.80358 229.536 6.94972C229.455 6.64029 229.414 6.32229 229.417 6.00328C229.447 4.33057 230.539 2.84048 232.182 2.23063C233.826 1.62077 235.695 2.01184 236.915 3.22075C237.747 3.07065 238.551 2.80599 239.302 2.4352C239.357 2.40267 239.426 2.40267 239.481 2.4352C239.516 2.48733 239.516 2.55343 239.481 2.60556C239.118 3.39452 238.503 4.05624 237.724 4.49844C238.407 4.42346 239.077 4.27093 239.721 4.04415C239.775 4.00918 239.847 4.00918 239.901 4.04415C239.946 4.06384 239.98 4.10149 239.994 4.14709C240.007 4.19268 239.999 4.24157 239.971 4.28076Z" fill="#707070"/>
<path id="Icon color_4" fill-rule="evenodd" clip-rule="evenodd" d="M117.125 1.94653H100.125C98.9514 1.94653 98 2.8479 98 3.95979V16.0393C98 17.1512 98.9514 18.0526 100.125 18.0526H117.125C118.299 18.0526 119.25 17.1512 119.25 16.0393V3.95979C119.25 2.8479 118.299 1.94653 117.125 1.94653ZM117.125 3.96057V6.87979L109.316 12.0639C108.9 12.337 108.35 12.337 107.934 12.0639L100.125 6.87979V3.96057H117.125ZM100.125 8.99371V16.0401H117.125V8.99371L110.378 13.4631C109.325 14.1604 107.925 14.1604 106.872 13.4631L100.125 8.99371Z" fill="#707070"/>
</g>
<line id="Line 3" x1="59.5" y1="2.18557e-08" x2="59.5" y2="19.6639" stroke="#D8D8D8"/>
<path id="Icon color_5" fill-rule="evenodd" clip-rule="evenodd" d="M9.56899 3.01405C10.6777 1.77861 12.231 1.05209 13.875 1C16.7817 1 19.138 3.39588 19.138 6.35135C19.138 9.85038 15.3125 13.6852 13.0182 15.9851C12.8117 16.1921 12.6175 16.3868 12.4397 16.5676L10.258 18.7859C10.1235 18.9228 9.94108 18.9998 9.7508 19H9.38718C9.19691 18.9998 9.01449 18.9228 8.88003 18.7859L6.6983 16.5676C6.52047 16.3868 6.32632 16.1921 6.11976 15.9851C3.82545 13.6852 0 9.85038 0 6.35135C0 3.39588 2.3563 1 5.26295 1C6.90699 1.05209 8.4603 1.77861 9.56899 3.01405ZM9.56914 16.7329L11.6743 14.6215C13.6168 12.6756 17.2243 9.03664 17.2243 6.35122C17.2244 5.44297 16.8676 4.57233 16.2333 3.93285C15.599 3.29336 14.7397 2.93802 13.8465 2.9458C12.3588 3.08623 11.0159 3.91053 10.2007 5.18365C10.1094 5.30497 9.96818 5.37675 9.81794 5.37825H9.38733C9.16376 5.37763 8.95256 5.27383 8.81319 5.09608C8.01093 3.86988 6.70555 3.07922 5.26309 2.9458C3.41341 2.9458 1.91394 4.47046 1.91394 6.35122C1.91394 9.03664 5.52145 12.6756 7.46396 14.6215L9.56914 16.7329Z" fill="#707070"/>
</g>
</svg>
